<svg id="Layer_1" data-name="Layer 1" xmlns="http://www.w3.org/2000/svg" viewBox="0 0 258.01 226.42"><defs><style>.cls-1{fill:#d40023;}.cls-2{fill:#fff;}.cls-3{fill:none;}</style></defs><title>good_express</title><path class="cls-1" d="M249.64,142.93a25.32,25.32,0,0,1-6.44,16.37A28.09,28.09,0,0,1,226.33,169c-7.51,1.3-15-1.66-18.76-7.57a18.53,18.53,0,0,1-1.76-16.35c3.35-10.08,10.27-16.6,20.6-19.15,6.88-1.7,13.28-.54,18.47,4.68C248.24,134,249.54,138.25,249.64,142.93Zm-24.38,14a12.35,12.35,0,0,0,11.83-11.22,7.59,7.59,0,0,0-7.51-8.07,12.27,12.27,0,0,0-11.53,7.84C215.82,151.5,219.24,156.93,225.26,156.94Z"/><path class="cls-1" d="M65,151.69a22.41,22.41,0,0,1,1.54-8.25,1.62,1.62,0,0,1,.93-.92c5.39-1.19,10.22-3.82,15.25-6,4.62-1.95,9.36-3.51,14.49-3.14,6.06.44,12,5.6,10.56,13.3a32.23,32.23,0,0,0-.68,5,11,11,0,0,1-2.86,6.55A28.09,28.09,0,0,1,89.11,168.4a24.94,24.94,0,0,1-6.12.84C72.78,169.23,65,162.25,65,151.69ZM85.47,157c4.62.35,11-4.59,11.72-10.28.63-5.38-2.79-9.32-8.19-9.06-5.14.24-8.66,3.05-10.62,7.69-1.29,3-1.42,6.13,1,8.87A7,7,0,0,0,85.47,157Z"/><path class="cls-1" d="M44.58,91.38c2.91-.22,5.73-.33,8.52-.68a21.91,21.91,0,0,0,12-4.86,26.19,26.19,0,0,1,6.27-4.13c3-1.33,5.78-3.14,9.1-3.85,5.64-1.22,10.67.64,13.73,5.51.74,1.17,1.35,2.42,2.13,3.83-1.86-.51-3.44-1-5-1.38-6-1.31-11.41.27-16.42,3.7a37.58,37.58,0,0,1-13,5.38,22.64,22.64,0,0,1-10.67,0A15.26,15.26,0,0,1,44.58,91.38Z"/><path class="cls-1" d="M57,122.66c-1.06-.29-2-.61-3-.81a15.22,15.22,0,0,0-11.79,2.61,22.49,22.49,0,0,1-14.71,4,10,10,0,0,1-6.07-2.73c2-.17,3.88-.29,5.77-.51a16.08,16.08,0,0,0,8.56-3.48,24.73,24.73,0,0,1,10.88-5.5C51.34,115.37,55.08,117.4,57,122.66Z"/><path class="cls-1" d="M29.58,102.59c-.12,0-.19.23-.29.35a4.15,4.15,0,0,0-1.25.26c-3,1.76-6.29,3.25-9,5.42a23.24,23.24,0,0,1-12.85,4.9c-2,.19-4.1.23-6.2.35a2.37,2.37,0,0,0,.24.34,8.22,8.22,0,0,0,.65.52,15.32,15.32,0,0,0,8.93,3,30.09,30.09,0,0,0,14-3.46c1.32-.64,2.56-1.46,3.88-2.11,2.4-1.19,4.84-2.32,7.26-3.48a2,2,0,0,0,.59,0,19.94,19.94,0,0,1,10.34,1.13,3.39,3.39,0,0,0,.66.09c0-.2.11-.33.07-.42C43.35,101.76,37.14,99.54,29.58,102.59Z"/><path d="M79.19,21.52l12.17,1.12c4.54.42,9.07.84,13.61,1.23.3,0,.8-.12.89-.33.4-.89.68-1.84,1-2.92L55,19.21c1.51.21,3,.35,4.52.49Z"/><path d="M100.8,14.74c2.75.25,5.49.54,8.23.74.52,0,1.33-.1,1.53-.43a14.19,14.19,0,0,0,1-2.74L67,11.51v.11l18.18,1.71C90.38,13.81,95.59,14.27,100.8,14.74Z"/><path d="M102.16,5.77c4.57.42,9.13.86,13.69,1.26a.87.87,0,0,0,.73-.35c.37-.87.65-1.77,1-2.8H82.14c1,.14,2.06.25,3.09.35Z"/><path d="M137.36,54.4q10.35.56,20.71,1.18a8.14,8.14,0,0,0,8.09-4.85c1.76-4-.55-7.6-4.9-7.82-5.35-.26-10.7-.6-16-1a1.3,1.3,0,0,1-1-.66c-.8-3.9-1.54-7.81-2.29-11.75a3.33,3.33,0,0,0-.72-1.84l-.21-.24c-.74-.84-7.68-2.29-10,2.79a6.94,6.94,0,0,0-1.44,5.64c.91,4.79,1.82,9.57,2.79,14.35A4.86,4.86,0,0,0,137.36,54.4Z"/><path d="M170.08,35.51c8.06,6.31,16.13,12.59,24.17,18.92a1.7,1.7,0,0,0,2.32.19c1.72-1.16,3.58-2.14,5.17-3.45,2.09-1.71,4-3.66,5.94-5.5a3.42,3.42,0,0,0-1.46-.58C197.71,43.33,192,38.46,189.49,30c-1.42-4.77-.87-9.48.2-14.22.2-.86.52-1.06,1.34-1.05,5,0,10,0,15,0h4.7l.17-.36a43.35,43.35,0,0,0-3.46-3.58c-5.86-4.9-12.7-6-19.94-4.45-10.9,2.34-18.68,8.83-23.63,18.74-.56,1.12-1.94,4-.79,4.94C165.34,32,167.75,33.69,170.08,35.51Z"/><path d="M141.86,119.76a12.8,12.8,0,0,0-1.4,2.76c-1,3.08.19,6,2.88,7.13a7.28,7.28,0,0,0,6.43-.63c2.25-1.24,3.39-3.42,4.69-5.48q11.26-17.7,22.54-35.37a11.49,11.49,0,0,0,1.15-2.23c1.56-4.32-1-8-5.63-8-2.6,0-5.2,0-7.8,0H116.85a8.37,8.37,0,0,0-5.68,2.21c-2.49,2.2-3.49,5.55-2.55,8.07.3.8.71,1,1.52.92,8.81-.61,17.62-1.23,26.44-1.73a7.12,7.12,0,0,1,6.67,3.29,2,2,0,0,0,2,1.05c4.71,0,9.42,0,14.34,0-.19.34-.27.52-.38.69Q150.55,106.11,141.86,119.76Z"/><path d="M114.37,15a22.22,22.22,0,0,0-4.73,9.9h50.28a2.3,2.3,0,0,0,1,0c.32-.15.75-.45.8-.74a16.54,16.54,0,0,0-3-12.94c-3.54-4.8-8.5-7.22-14.28-8.07-1.15-.17-1.43-.59-1.13-1.64A7.7,7.7,0,0,0,143.44,0c-1.47,0-2.78.05-4.09,0-.88,0-1.32.31-1.29,1.13.06,1.46-.75,1.81-2,2A32.43,32.43,0,0,0,114.37,15Z"/><path d="M174,50.22c.79-3.38.49-6.59-1.69-9.44-3.6-4.73-10.78-4.58-15.23-1.82,2.13.12,4,.25,5.88.33A7.22,7.22,0,0,1,169.9,45C171.44,52,165,59.9,158,59.29c-4.86-.42-9.74-.57-14.6-.87-2.75-.17-5.51-.34-8.24-.66a2.15,2.15,0,0,0-1.91.51q-9,7.57-18.13,15.13c-.86.71-1.69,1.46-2.68,2.31a5.81,5.81,0,0,0,.63.11q17.15,0,34.3,0a1.94,1.94,0,0,0,1.16-.46c6.89-5.72,13.78-11.42,20.61-17.21A14.59,14.59,0,0,0,174,50.22Z"/><path d="M192.7,18.45c-.09,1.9-.3,3.72-.24,5.54.32,10.17,7.9,17.11,17.26,17.75.82.06,1.37-.09,1.69-.9a57.68,57.68,0,0,0,2.22-5.66c1.51-5.49,1.32-10.88-1.56-16a1.59,1.59,0,0,0-1.15-.7c-4.15-.06-8.31-.06-12.46-.07Z"/><path d="M257.55,124c-1.83-6.49-6.06-11.21-11.4-15.09a10.8,10.8,0,0,0-6-2,52.43,52.43,0,0,1-16.6-3.31c-4.61-1.85-8.39-4.64-10.09-9.57-.2-.57-.31-1.17-.45-1.73,3.28,0,6.36,0,9.43,0,.81,0,1.06-.29,1.21-1.06,1.24-6.35,2.53-12.68,3.8-19,.28-1.39.52-2.78.81-4.37-5.45.46-11-1.3-15.74,2.91-.78-3.46-2.29-6.24-5.14-7.93a50.64,50.64,0,0,0-7.61-3.74c-1.3-.5-2.88-.3-4.34-.36-.7,0-1,.39-.85,1.1s.35,1.6.5,2.25h-4.57c-3,0-6,0-9,.08-1.6.05-2.79-.21-3.13-2a6.58,6.58,0,0,0-.5-1.21l-1.83-4.46c-1.78,3.88-4.75,6.26-7.65,8.71-.61.51-1.19,1.07-1.84,1.54a1.13,1.13,0,0,0-.41,1.62c.64,1.42,1.22,2.87,1.8,4.31,1.23,3.07,2.6,4,5.88,4.06,3.79,0,7.58,0,11.38,0a1.94,1.94,0,0,1,1.3.33,3,3,0,0,0,2.71,1c1.19-.11,2.38-.31,3.57-.42,2.17-.2,4.33-.36,6.62-.54,0,.81,0,1.32,0,1.83-.23,11.83-.48,23.65-.67,35.48a2,2,0,0,1-1.24,2c-7.45,4.11-13.64,9.44-16.84,17.65a8.41,8.41,0,0,1-4.38,4.57,15.06,15.06,0,0,1-6.53,1.31c-5.82.05-11.65,0-17.48,0H122.7a3.69,3.69,0,0,1-.13-.49c-.47-8.74-.92-17.47-1.41-26.21,0-.69.26-1,.82-1.23.89-.45,1.71-1,2.56-1.56a5.7,5.7,0,0,0,1.07-.24c3.19-1.33,6-3.64,9.8-3.29,0,0,.08,0,.12,0,3.8-1,5.88-3.49,6.57-7.35.82-4.65-1.82-8-6.51-7.78-7.74.39-15.47.93-23.2,1.46-1.49.1-3,.41-4.45.63a36.19,36.19,0,0,1-3.79-.7,30.23,30.23,0,0,0-10.63-1.43,22.48,22.48,0,0,0-13.69,5.34c-.75.65-1.39,1.41-2.14,2.17,3.27-.49,6.33-1,9.41-1.4a13.3,13.3,0,0,1,7.81,1.29,4.91,4.91,0,0,1,2.62,5.63,9.63,9.63,0,0,1-5.81,6.87c-4.28,1.89-8.45,1.17-12.4-1.07A17.66,17.66,0,0,0,70,105.8a38.94,38.94,0,0,0-11.92,2.43,13.25,13.25,0,0,0-1.91,1l-1.76,1a.71.71,0,0,0,.55.07c4.5-.87,9-1.38,13.53-.12,6.3,1.76,8.67,7.46,5.41,13.15-2.8,4.88-7.27,7.2-12.68,8-1.09.16-2.17.29-3.26.44a2.09,2.09,0,0,0-.64-.27,20.48,20.48,0,0,1-8.79-3.22c-.9-.53-1.85-1-2.92-1.57,0,.41,0,.61,0,.8a13.46,13.46,0,0,0,8,10.58,14.29,14.29,0,0,0,11.13.45,71.83,71.83,0,0,0,7.33-2c4.81-1.82,9.47-4,14.29-5.82A27.16,27.16,0,0,1,99.76,129a15,15,0,0,1,12.83,13,41.37,41.37,0,0,1,0,4.46c.3,0,.61.06.92.06,14.83.07,29.65.17,44.48.21,4.87,0,9.76,0,14.63-.19,3.94-.14,7.82-.67,11.14-3.11,1.25-.92,2.45-1.93,3.77-2.74,1.92-1.18,3.93-2.22,6.14-3.45-.25,2.36-.52,4.28-.63,6.22a52.26,52.26,0,0,0-.06,5.87c.09,1.61.83,2,2.33,1.63l2.53-.7c.07-.54.13-1.05.21-1.56a34,34,0,0,1,8.77-17.93c7.71-8.35,17.07-13.14,28.66-12.24,9,.7,15.58,5.25,19.36,13.6a5.54,5.54,0,0,0,.72,1c.35-.28.82-.49,1-.85A10.18,10.18,0,0,0,257.55,124Zm-56.68-57.4-2.22.81c-.1-.32-.2-.63-.29-.94l-.58-1.86c-.1-.32-.2-.65-.31-1l2.07,1.28,2.23,1.38Z"/><path class="cls-2" d="M197.47,63.66c.11.34.21.67.31,1l.58,1.86c.09.31.19.62.29.94l2.22-.81.9-.32-2.23-1.38Z"/><path class="cls-1" d="M156.68,179.51a6.68,6.68,0,0,0-2.94-.29,78,78,0,0,0-8.16,1.64,25,25,0,0,0-4.27,2c2.65,2,2.8,2.83,1.27,5.42-.41.68-.79,1.39-1.24,2-.6.89-1.26,1.74-1.8,2.48a30.64,30.64,0,0,0-2.31-2.1c-1.95-1.45-4.27-1.44-6.45-1a24.52,24.52,0,0,0-15.42,9.55c-3,4-4.31,8.63-2.76,13.66,1.22,4,4.29,6.41,8.1,6.48a11.51,11.51,0,0,0,6.35-1.83c2.52-1.59,2.59-1.58,4.09.91a4.2,4.2,0,0,0,4.36,2.06,18.51,18.51,0,0,0,7.55-2.52,42.17,42.17,0,0,0,5.6-4.2c.37-.31.33-1.12.47-1.69a7,7,0,0,0-1.65,0,36.53,36.53,0,0,1-3.9,1c-1.23.13-1.87-.61-1.8-1.85a11.13,11.13,0,0,1,.54-3.15c1.85-5.08,4.91-9.48,8-13.87,2.58-3.71,5.15-7.41,7.66-11.17C159,181.49,158.49,180.09,156.68,179.51ZM133,206.39a30,30,0,0,1-2.3,3.63,2.61,2.61,0,0,1-4.28.12,3.51,3.51,0,0,1-.89-3.23c.7-2.81,2.19-5.26,5.29-6.06,1.73-.45,3.14.6,3.16,2.85A18.86,18.86,0,0,1,133,206.39Z"/><path class="cls-1" d="M109.67,211.48c-1.15.45-2.24,1.06-3.38,1.53a11.5,11.5,0,0,1-1.78.4l-.17-.42c.31-.29.6-.59.92-.86,4.48-3.71,7-8.37,6.72-14.28a8,8,0,0,0-4.57-7.24c-3.92-1.89-7.87-1.41-11.7.31-4.66,2.08-7.88,5.77-10.59,10-2.41,3.71-3.9,7.73-3,12.24.73,3.63,2.7,6.32,6.48,7.23a9.62,9.62,0,0,0,6.53-.83,23.12,23.12,0,0,1,6.92-1.77,21,21,0,0,0,6.21-2c1.13-.55,1.92-1.84,2.75-2.89a1.34,1.34,0,0,0-.07-1.3C110.74,211.34,110.05,211.34,109.67,211.48Zm-9.34-2.38c-.73,1.05-1.81.87-2.23-.38a24.69,24.69,0,0,1-.62-2.89c.13-1.8.61-2.7,1.67-2.86a1.69,1.69,0,0,1,2.11,1.27A5.59,5.59,0,0,1,100.33,209.1Z"/><path class="cls-1" d="M54.46,197.7c.16-.48.37-1.23.15-1.48a2,2,0,0,0-1.54-.41,8.17,8.17,0,0,0-1.94.59c-1.55.58-3.1,1-4.55-.26,1.19-2,2.46-4,3.54-6.09.91-1.74.23-3.13-1.66-3.52a8,8,0,0,0-3.44-.17c-3.24.81-6.43,1.82-9.61,2.85a10.27,10.27,0,0,0-2.18,1.42c2.61,2.28,2.7,2.32,1.69,4.74-2.51,6-6,11.33-11.25,15.36a38.68,38.68,0,0,0-4.91,4.84,1.6,1.6,0,0,0,.15,2.38,6.25,6.25,0,0,0,4.66,1.31,3.55,3.55,0,0,0,1,.45,9.93,9.93,0,0,0,7.32-2c4.8-3.53,7.78-8.43,10.11-13.79a2.54,2.54,0,0,0,0-1,5.58,5.58,0,0,0,1.24-.79,1.71,1.71,0,0,1,2.14-.52c.83.38.74,1.11.57,1.85-.23,1-.45,2-.62,3s-.08,1.83,1,2.11a1.79,1.79,0,0,0,2.3-1.19c.08-.22.2-.43.28-.66a23.63,23.63,0,0,1,4.79-8.05A3.64,3.64,0,0,0,54.46,197.7Z"/><path class="cls-1" d="M30.67,195a12.62,12.62,0,0,1-1.77-2.49,14,14,0,0,1-.51-3,1.24,1.24,0,0,0-.17-.32,3.27,3.27,0,0,0,.67-.45,17.22,17.22,0,0,1,1.72-2c4-3.3,8.73-3.58,13.62-2.92,3.27.44,6.15,1.91,9.08,3.29a6.71,6.71,0,0,0,2.13.21c.31.16.6.45.91.46a28.54,28.54,0,0,0,3.7,0,14.33,14.33,0,0,0,11.16-6.29,4.71,4.71,0,0,0,.37-1.51,3.78,3.78,0,0,0-1.56-.19A21.77,21.77,0,0,1,61.78,181a1,1,0,0,0-.3-.17A30,30,0,0,1,51,177.16a25.08,25.08,0,0,0-9.68-3.22,32.6,32.6,0,0,0-15.46,2.39,54.86,54.86,0,0,0-6.61,3.91,13.27,13.27,0,0,0-6.4,8.26,6.44,6.44,0,0,0,2.69,7.24,10.58,10.58,0,0,0,6.59,1.7A17.65,17.65,0,0,0,30.67,195Z"/><path class="cls-1" d="M79.57,211.52c-1.23.47-2.39,1.1-3.61,1.6a7.88,7.88,0,0,1-1.65.25c.14-.38.15-.52.23-.59.25-.25.53-.48.8-.71,4.37-3.68,6.92-8.27,6.65-14.08a8.08,8.08,0,0,0-5-7.55c-3.83-1.69-7.59-1.15-11.25.47-4.5,2-7.62,5.55-10.34,9.53a18.25,18.25,0,0,0-3.52,10.63,9.42,9.42,0,0,0,.75,2.54c-.08.21-.28.47-.23.64a8.59,8.59,0,0,0,5.43,5.9,4.18,4.18,0,0,0,1.37,0c.41.12.85.39,1.23.32q2.34-.39,4.65-1c2-.52,4-1.16,6.08-1.66,1.62-.4,3.3-.55,4.9-1a7.75,7.75,0,0,0,4.87-3.8,1.56,1.56,0,0,0,0-1.41A1.61,1.61,0,0,0,79.57,211.52Zm-9.32-2.32c-.66.93-1.7.75-2.11-.36a20.6,20.6,0,0,1-.65-2.9c.15-.73.22-1.32.39-1.88A1.32,1.32,0,0,1,69.49,203c.62.15,1.46.54,1.64,1A5.37,5.37,0,0,1,70.25,209.2Z"/><path class="cls-2" d="M130.8,200.85c-3.1.8-4.59,3.25-5.29,6.06a3.51,3.51,0,0,0,.89,3.23,2.61,2.61,0,0,0,4.28-.12,30,30,0,0,0,2.3-3.63,18.86,18.86,0,0,0,1-2.69C133.94,201.45,132.53,200.4,130.8,200.85Z"/><path class="cls-2" d="M99.15,203c-1.06.16-1.54,1.06-1.67,2.86a24.69,24.69,0,0,0,.62,2.89c.42,1.25,1.5,1.43,2.23.38a5.59,5.59,0,0,0,.93-4.86A1.69,1.69,0,0,0,99.15,203Z"/><path class="cls-2" d="M69.49,203a1.32,1.32,0,0,0-1.61,1.07c-.17.56-.24,1.15-.39,1.88a20.6,20.6,0,0,0,.65,2.9c.41,1.11,1.45,1.29,2.11.36a5.37,5.37,0,0,0,.88-5.17C71,203.53,70.11,203.14,69.49,203Z"/><path class="cls-3" d="M194.71,213c-1.57.49-1.7,2-2.17,3.2-.31.8.14,1.19,1,1a4.19,4.19,0,0,0,2.61-3.14C196.16,213.05,195.69,212.72,194.71,213Z"/><path d="M255.1,212.12a4.34,4.34,0,0,1-.06-3.66c.29-.56,0-1.39,0-2.1a5.6,5.6,0,0,0-2.33.3,2.72,2.72,0,0,0-1.21,2,3.18,3.18,0,0,1-1.2,2.67c-1.08.95-2.07,2-3.12,3a7.44,7.44,0,0,1-.9.66c-.12-.09-.25-.17-.38-.25.31-.72.64-1.43.93-2.17s-.15-1.4-.9-1a24.24,24.24,0,0,0-3.22,2.13,4.37,4.37,0,0,0-.73.9c-.3-2.48-1.67-4.75-.2-7.16.36-.6-.2-1.18-1-1.23-1.41-.09-3.07,1.09-2.87,2.42.24,1.59-.7,2.33-1.58,3.22-.72.74-1.48,1.45-2.25,2.14-.43.39-.9.71-1.35,1.07l-.34-.23a16.12,16.12,0,0,0,.85-2.22c.07-.32-.15-1-.37-1.05-1-.34-3.16,1.12-3.49,2.29-.19.1-.45.15-.57.31a5,5,0,0,0,.15,5.31,7.27,7.27,0,0,0,8.08,2.06c2.34-.41,3.56-2.09,4.45-4a14.24,14.24,0,0,0,1.29,2.18,7.71,7.71,0,0,0,9.44,1.27A7.54,7.54,0,0,0,255.1,212.12ZM237,216.62a2.26,2.26,0,0,1-2.81.33l4.15-4.38A3.7,3.7,0,0,1,237,216.62Zm13.77-.16a2.5,2.5,0,0,1-3,.5l4.07-4.39A3.58,3.58,0,0,1,250.72,216.46Z"/><path d="M168.32,213.11a5.7,5.7,0,0,0-.82.89c-1.28,2.15-3,3.67-5.62,3.65a2.23,2.23,0,0,1-2.37-1.94c-.37-2.61,2.7-5.51,5.23-4.94a2.37,2.37,0,0,0,2.54-1.68c.15-.83-.31-1.33-1.16-1.18-.46.07-.91.32-1.38.35s-1-.07-1.14-.31a1.54,1.54,0,0,1,.13-1.27,2.85,2.85,0,0,1,4.38-.34,14.5,14.5,0,0,1,1.13,1.56c1.71-1.62,3.88-2.68,5-4.61-1.29-.65-2.27-1.18-3.29-1.64a8.69,8.69,0,0,0-2.65-1,10.44,10.44,0,0,0-8.53,3.3,3.9,3.9,0,0,0-1.08,4.38c.15.36.28.71.44,1.14a11.12,11.12,0,0,0-1.58.72,17.6,17.6,0,0,0-3.67,2.57,4.68,4.68,0,0,0,1,7.47c4.33,2.29,11,.6,13.69-3.52a4.7,4.7,0,0,0,.62-2.34C169.19,214,168.62,213.54,168.32,213.11Z"/><path d="M226.91,217.41c-.71.25-1.36.68-2.08.89a5.7,5.7,0,0,1-2.32.34,1.84,1.84,0,0,1-1.17-1.21c-.16-.75.56-.92,1.21-.94.28,0,.56,0,.83-.07a8.51,8.51,0,0,0,6.76-5.25c.88-1.95,0-3.54-2.16-3.65a14.84,14.84,0,0,0-4.42.61,9.85,9.85,0,0,0-7.49,9.93,22.86,22.86,0,0,1-2.39.95,3.42,3.42,0,0,1-1.26-.08c.06-.41,0-.93.19-1.22.94-1.23,2-2.39,3-3.59.24-.28.62-.67.57-.94-.19-1.16-.52-2.29-.83-3.54-2,.71-4,1.62-6,.5.16-.36.46-.73.44-1.09,0-.67-.05-1.61-.45-1.91a2.57,2.57,0,0,0-2.08-.14,3.29,3.29,0,0,0-1.93,3.73,2.67,2.67,0,0,1-.79,2.9,7.75,7.75,0,0,0-1.22,1.47,4.09,4.09,0,0,0-.24,1.34c.56.94,1.14.26,1.55-.08.85-.72,1.59-1.57,2.39-2.35,1-.95,1.58-1,2.91-.16-.47.81-1,1.61-1.4,2.45-.94,1.91-.87,3.54.11,4.47s3.18,1,4.76.25c.25-.12.49-.27.73-.41l2.43-1.48a4.16,4.16,0,0,0,4.87,2,38.41,38.41,0,0,0,5.51-2.17,1.51,1.51,0,0,0,.66-.5,3.9,3.9,0,0,0,.25-.92C227.48,217.47,227.16,217.32,226.91,217.41Zm-1.28-4.71a1,1,0,0,1,.75.24c.1.09.07.45,0,.63-.5.93-2.87,1.78-4.22,1.4A5.33,5.33,0,0,1,225.63,212.7Z"/><path d="M198,208a7.2,7.2,0,0,0-1.15.31c-.63.25-1.08.14-1.34-.51a1.5,1.5,0,0,0-1.95-.93,11.36,11.36,0,0,0-5.06,3.16c1,.81.81,1.71.43,2.63a24.77,24.77,0,0,1-1.34,3.07c-1.66,2.81-3.41,5.58-5.13,8.36-.62,1-.5,1.44.56,2,1.68.85,3.58.16,4.91-1.76.77-1.12,1.52-2.26,2.37-3.31a1.41,1.41,0,0,1,1.24-.39,4,4,0,0,0,4.3,0c3.3-1.76,5.86-4.18,6.8-7.92C203.38,209.52,201.07,207.27,198,208Zm-4.43,9.22c-.85.2-1.3-.19-1-1,.47-1.22.6-2.71,2.17-3.2,1-.31,1.45,0,1.43,1.05A4.19,4.19,0,0,1,193.53,217.22Z"/><path d="M185.85,215.53c-.25.08-.48.13-.69.21-1.5.52-2.47.33-3.1-.63a2.3,2.3,0,0,1,.76-3.17,43.39,43.39,0,0,1,4.05-2.43,10.07,10.07,0,0,0,1.14-.93c-.49-.18-1-.6-1.44-.48a21.64,21.64,0,0,0-3.74,1.5c-.68.35-1,.48-1.53-.27a3.18,3.18,0,0,0-1.77-1.25,5.86,5.86,0,0,0-5.31,1.51c-1.07,1-1,1.32.36,1.81a2.19,2.19,0,0,1,1.62,2.46,5.25,5.25,0,0,1-1.79,3.42c-1.56,1.57-2.68,1.56-4.24-.09a1.73,1.73,0,0,0-1,2.2c.28,1,1.05,1.23,2,1.16a8,8,0,0,0,4.42-2c.58-.46,1-.56,1.37.28a2.78,2.78,0,0,0,3.15,1.62C182.15,220.27,185.19,217.7,185.85,215.53Z"/><path class="cls-2" d="M234.14,217a2.26,2.26,0,0,0,2.81-.33,3.7,3.7,0,0,0,1.34-4.05Z"/><path class="cls-2" d="M247.74,217a2.5,2.5,0,0,0,3-.5,3.58,3.58,0,0,0,1.09-3.89Z"/><path class="cls-2" d="M226.35,213.57c.1-.18.13-.54,0-.63a1,1,0,0,0-.75-.24,5.33,5.33,0,0,0-3.5,2.27C223.48,215.35,225.85,214.5,226.35,213.57Z"/><polygon class="cls-1" points="164.26 28.33 102.38 28.33 103.71 24.97 165.59 24.97 164.26 28.33"/></svg>